HIERARCHY
ROOT SpineBase
{
  OFFSET 0.000000 0.000000 0.000000
  CHANNELS 6 Xposition Yposition Zposition Zrotation Xrotation Yrotation
  JOINT SpineMid
  {
    OFFSET 0.000000 31.365390 0.000000
    CHANNELS 3 Zrotation Xrotation Yrotation
    JOINT SpineShoulder
    {
      OFFSET 0.216498 23.250422 -0.518848
      CHANNELS 3 Zrotation Xrotation Yrotation
      JOINT Neck
      {
        OFFSET 0.130715 7.687468 -0.446211
        CHANNELS 3 Zrotation Xrotation Yrotation
        JOINT Head
        {
          OFFSET 5.086765 12.804258 4.738318
          CHANNELS 3 Zrotation Xrotation Yrotation
          End Site
          {
            OFFSET 0 0 0
          }
        }
      }
      JOINT ShoulderLeft
      {
        OFFSET -12.267644 -2.893203 -11.282591
        CHANNELS 3 Zrotation Xrotation Yrotation
        JOINT ElbowLeft
        {
          OFFSET -6.240943 -25.998300 -7.381432
          CHANNELS 3 Zrotation Xrotation Yrotation
          JOINT WristLeft
          {
            OFFSET 1.921631 -20.312041 -4.931730
            CHANNELS 3 Zrotation Xrotation Yrotation
            JOINT HandLeft
            {
              OFFSET 1.183005 -8.174716 0.967564
              CHANNELS 3 Zrotation Xrotation Yrotation
              JOINT HandTipLeft
              {
                OFFSET 0.483674 -8.726401 -0.309263
                CHANNELS 3 Zrotation Xrotation Yrotation
                End Site
                {
                  OFFSET 0 0 0
                }
              }
              JOINT ThumbLeft
              {
                OFFSET 3.784430 0.649572 0.330330
                CHANNELS 3 Zrotation Xrotation Yrotation
                End Site
                {
                  OFFSET 0 0 0
                }
              }
            }
          }
        }
      }
      JOINT ShoulderRight
      {
        OFFSET 11.814710 -3.562176 11.980059
        CHANNELS 3 Zrotation Xrotation Yrotation
        JOINT ElbowRight
        {
          OFFSET 2.440966 -26.837730 4.851181
          CHANNELS 3 Zrotation Xrotation Yrotation
          JOINT WristRight
          {
            OFFSET 0.433690 -25.355189 -2.733868
            CHANNELS 3 Zrotation Xrotation Yrotation
            JOINT HandRight
            {
              OFFSET -1.004926 -7.015144 0.098784
              CHANNELS 3 Zrotation Xrotation Yrotation
              JOINT HandTipRight
              {
                OFFSET -1.352692 -7.662198 0.115505
                CHANNELS 3 Zrotation Xrotation Yrotation
                End Site
                {
                  OFFSET 0 0 0
                }
              }
              JOINT ThumbRight
              {
                OFFSET -2.750186 3.186666 -2.540100
                CHANNELS 3 Zrotation Xrotation Yrotation
                End Site
                {
                  OFFSET 0 0 0
                }
              }
            }
          }
        }
      }
    }
  }
  JOINT HipLeft
  {
    OFFSET -4.851528 1.650932 -7.826687
    CHANNELS 3 Zrotation Xrotation Yrotation
    JOINT KneeLeft
    {
      OFFSET -12.086059 -35.511456 -5.004005
      CHANNELS 3 Zrotation Xrotation Yrotation
      JOINT AnkleLeft
      {
        OFFSET -8.760693 -37.382610 3.910472
        CHANNELS 3 Zrotation Xrotation Yrotation
        JOINT FootLeft
        {
          OFFSET 3.738987 -6.458554 -7.669371
          CHANNELS 3 Zrotation Xrotation Yrotation
          End Site
          {
            OFFSET 0 0 0
          }
        }
      }
    }
  }
  JOINT HipRight
  {
    OFFSET 5.395555 0.172769 0.863323
    CHANNELS 3 Zrotation Xrotation Yrotation
    JOINT KneeRight
    {
      OFFSET -6.206376 -37.683146 1.730685
      CHANNELS 3 Zrotation Xrotation Yrotation
      JOINT AnkleRight
      {
        OFFSET -8.751025 -35.122125 9.181058
        CHANNELS 3 Zrotation Xrotation Yrotation
        JOINT FootRight
        {
          OFFSET 1.847162 -7.644182 -5.478720
          CHANNELS 3 Zrotation Xrotation Yrotation
          End Site
          {
            OFFSET 0 0 0
          }
        }
      }
    }
  }
}
MOTION
Frames: 9
Frame Time: 0.033333
-26.035762 85.242101 339.596618 -0.000000 0.000000 -40.299516 0.000000 -0.000000 40.299516 -0.000000 0.000000 0.000000 -0.000000 0.000000 0.000000 0.000000 0.000000 0.000000 -0.000000 0.000000 0.000000 -0.000000 0.000000 0.000000 -0.000000 0.000000 0.000000 -0.000000 0.000000 0.000000 0.000000 0.000000 0.000000 0.000000 0.000000 0.000000 -0.000000 0.000000 0.000000 -0.000000 0.000000 0.000000 -0.000000 0.000000 0.000000 -0.000000 0.000000 0.000000 0.000000 0.000000 0.000000 0.000000 0.000000 0.000000 0.000000 -0.000000 40.299516 -0.000000 0.000000 0.000000 -0.000000 0.000000 0.000000 0.000000 0.000000 0.000000 0.000000 -0.000000 40.299516 -0.000000 0.000000 0.000000 -0.000000 0.000000 0.000000 0.000000 0.000000 0.000000
-25.804004 85.173195 340.200233 0.198037 -0.521139 -40.419585 -0.488669 0.268342 40.421630 -0.000000 0.000000 0.000000 -0.000000 0.000000 0.000000 0.000000 0.000000 0.000000 -0.000000 0.000000 0.000000 -0.000000 0.000000 0.000000 2.515873 -2.521458 -0.011680 -2.736557 3.361719 0.187997 0.000000 0.000000 0.000000 0.000000 0.000000 0.000000 -0.000000 0.000000 0.000000 -0.000000 0.000000 0.000000 1.176438 0.945003 -0.128716 -1.766835 0.242829 -0.113407 0.000000 0.000000 0.000000 0.000000 0.000000 0.000000 -1.394522 0.580833 40.216601 0.490017 -0.823452 0.215263 -3.221061 -3.542584 1.768363 0.000000 0.000000 0.000000 -1.248482 0.704917 40.278651 0.297472 -0.824249 0.151572 5.181957 6.268735 -2.365141 0.000000 0.000000 0.000000
-25.632756 85.116989 340.674851 0.345904 -0.913808 -40.519149 0.029165 0.015685 40.538679 -0.052632 0.173585 0.014510 -0.325160 0.747445 -0.029472 0.000000 0.000000 0.000000 -0.325160 0.747445 -0.029472 -0.000000 0.000000 0.000000 4.252882 -4.178219 0.053376 -4.607927 5.647296 0.380719 0.000000 0.000000 0.000000 0.000000 0.000000 0.000000 -0.325160 0.747445 -0.029472 -0.000000 0.000000 0.000000 2.221569 1.817379 -0.265112 -3.314923 0.285226 -0.209612 0.000000 0.000000 0.000000 0.000000 0.000000 0.000000 -2.465348 1.042638 40.164164 0.860324 -1.474919 0.393565 -6.030941 -6.838262 3.164316 0.000000 0.000000 0.000000 -2.214876 1.252509 40.278495 0.530517 -1.474908 0.274170 8.955050 10.301048 -4.376417 0.000000 0.000000 0.000000
-25.522018 85.073482 341.020471 0.443804 -1.178559 -40.596205 0.082010 0.000022 40.623095 -0.050981 0.209535 0.020731 -0.454231 1.022745 -0.039720 0.000000 0.000000 0.000000 -0.454231 1.022745 -0.039720 -0.000000 0.000000 0.000000 5.300175 -5.065231 0.127367 -5.695142 6.959021 0.500915 0.000000 0.000000 0.000000 0.000000 0.000000 0.000000 -0.454231 1.022745 -0.039720 -0.356150 0.855737 0.055656 3.466622 1.741262 -0.404603 -4.613801 0.132082 -0.281635 0.000000 0.000000 0.000000 0.000000 0.000000 0.000000 -3.211705 1.387008 40.131128 1.109036 -1.954905 0.531065 -8.387309 -9.752470 4.203859 0.000000 0.000000 0.000000 -2.898928 1.644887 40.288104 0.698132 -1.952596 0.365662 11.351189 12.489026 -5.780951 0.000000 0.000000 0.000000
-25.471790 85.042673 341.237094 0.491885 -1.315831 -40.649231 0.160523 -0.031319 40.680991 -0.030803 0.211765 0.026236 -0.561217 1.232938 -0.047528 0.000000 0.000000 0.000000 -0.561217 1.232938 -0.047528 -0.000000 0.000000 0.000000 5.713113 -5.243167 0.177039 -6.047560 7.360941 0.511287 0.000000 0.000000 0.000000 0.000000 0.000000 0.000000 -0.561217 1.232938 -0.047528 -0.367718 0.949680 0.058891 4.191209 2.322879 -0.516688 -5.640785 -0.208692 -0.321911 0.000000 0.000000 0.000000 0.000000 0.000000 0.000000 -3.632625 1.615428 40.109663 1.234493 -2.263633 0.624964 -10.268656 -12.190246 4.920530 0.000000 0.000000 0.000000 -3.300447 1.884032 40.299674 0.799616 -2.258003 0.424524 12.435390 13.132232 -6.484234 0.000000 0.000000 0.000000
-25.482072 85.024564 341.324719 0.490235 -1.325896 -40.677270 0.264818 -0.078443 40.711165 0.007853 0.180347 0.031076 -0.646267 1.378326 -0.053208 0.000000 0.000000 0.000000 -0.646267 1.378326 -0.053208 -0.000000 0.000000 0.000000 5.515699 -4.734906 0.193659 -5.687565 6.875120 0.404212 0.000000 0.000000 0.000000 0.000000 0.000000 0.000000 -0.646267 1.378326 -0.053208 -0.327079 0.951744 0.054217 4.674979 2.880102 -0.613814 -6.381570 -0.727130 -0.323208 0.000000 0.000000 0.000000 0.000000 0.000000 0.000000 -3.726872 1.728832 40.095228 1.235223 -2.400819 0.673491 -11.666725 -14.093534 5.353865 0.000000 0.000000 0.000000 -3.419363 1.971392 40.308568 0.834558 -2.391726 0.449829 12.246161 12.353144 -6.467423 0.000000 0.000000 0.000000
-25.638559 85.055682 341.086216 0.328536 -0.967008 -40.749677 0.516394 -0.193701 40.779219 0.117042 0.045568 0.036578 -0.708832 1.405982 -0.056389 0.000000 0.000000 0.000000 -0.708832 1.405982 -0.056389 -0.000000 0.000000 0.000000 3.988171 -2.741514 0.169555 -4.409655 4.850567 0.181211 0.000000 0.000000 0.000000 0.000000 0.000000 0.000000 -0.708832 1.405982 -0.056389 -0.203209 0.798802 0.036964 4.765046 3.747418 -0.743834 -7.003928 -1.668048 -0.279437 0.000000 0.000000 0.000000 0.000000 0.000000 0.000000 -2.882149 1.501932 40.219188 0.894266 -2.043354 0.588483 -17.319605 -22.278901 6.225929 0.000000 0.000000 0.000000 -2.776684 1.664954 40.414023 0.701276 -2.102192 0.391406 7.976749 7.030589 -4.255007 0.000000 0.000000 0.000000
-25.739452 85.057181 340.967450 0.253999 -0.776925 -40.742625 0.659746 -0.262448 40.771116 0.199096 -0.043354 0.041742 -0.780064 1.450529 -0.060107 0.000000 0.000000 0.000000 -0.780064 1.450529 -0.060107 -0.000000 0.000000 0.000000 2.402726 -0.516562 0.219723 -2.405795 2.165592 -0.106516 0.000000 0.000000 0.000000 0.000000 0.000000 0.000000 -0.780064 1.450529 -0.060107 -0.000000 0.000000 0.000000 4.413279 5.050438 -0.861779 -6.433527 -3.086429 -0.063737 0.000000 0.000000 0.000000 0.000000 0.000000 0.000000 -2.450001 1.465830 40.211228 0.664047 -1.926207 0.575716 -11.421722 -14.193935 4.934742 0.000000 0.000000 0.000000 -2.464410 1.497790 40.423514 0.647171 -1.962319 0.364081 -1.253887 -6.446085 -0.764034 0.000000 0.000000 0.000000
-25.885150 85.061221 340.762329 0.159634 -0.532336 -40.666306 0.754764 -0.318368 40.691960 0.276565 -0.149381 0.045031 -0.799720 1.415864 -0.060650 0.000000 0.000000 0.000000 -0.799720 1.415864 -0.060650 -0.000000 0.000000 0.000000 0.578497 1.967452 0.343733 0.932550 -1.048253 -0.326268 0.000000 0.000000 0.000000 0.000000 0.000000 0.000000 -0.799720 1.415864 -0.060650 -0.000000 0.000000 0.000000 4.441152 5.145541 -0.880115 -6.520680 -3.094373 -0.078081 0.000000 0.000000 0.000000 0.000000 0.000000 0.000000 -1.791475 1.314086 40.181303 0.357001 -1.628703 0.510684 -8.967427 -11.015908 4.053610 0.000000 0.000000 0.000000 -1.958420 1.257076 40.385706 0.515378 -1.694653 0.310439 0.628023 -3.879177 -1.398612 0.000000 0.000000 0.000000
